<svg width="24" height="20" viewBox="0 0 24 20" fill="none" xmlns="http://www.w3.org/2000/svg">
<g clip-path="url(#clip0_104_2388)">
<path d="M23.3363 10.5898L19.0163 8.83203C18.8625 8.76953 18.5438 8.6875 18.1838 8.83203L13.8638 10.5898C13.4625 10.7539 13.2 11.1367 13.2 11.5625C13.2 15.9219 15.7763 18.9375 18.1838 19.918C18.5438 20.0625 18.8588 19.9805 19.0163 19.918C20.94 19.1367 24 16.4258 24 11.5625C24 11.1367 23.7375 10.7539 23.3363 10.5898ZM18.6 18.0625V10.6758L22.1813 12.1328C21.9713 15.5352 19.8975 17.4219 18.6 18.0625ZM8.4 10C11.0513 10 13.2 7.76172 13.2 5C13.2 2.23828 11.0513 0 8.4 0C5.74875 0 3.6 2.23828 3.6 5C3.6 7.76172 5.74875 10 8.4 10ZM12 11.5625C12 11.4648 12.03 11.375 12.0413 11.2812C11.9475 11.2773 11.8575 11.25 11.76 11.25H11.1337C10.3013 11.6484 9.375 11.875 8.4 11.875C7.425 11.875 6.5025 11.6484 5.66625 11.25H5.04C2.2575 11.25 0 13.6016 0 16.5V18.125C0 19.1602 0.80625 20 1.8 20H15C15.255 20 15.4988 19.9414 15.72 19.8438C13.695 18.168 12 15.2852 12 11.5625Z" fill="#FBF9FA"/>
</g>
<defs>
<clipPath id="clip0_104_2388">
<rect width="24" height="20" fill="white"/>
</clipPath>
</defs>
</svg>
