<svg width="28" height="23" viewBox="0 0 28 23" fill="none" xmlns="http://www.w3.org/2000/svg">
<g filter="url(#filter0_d_104_2465)">
<circle cx="13.9996" cy="4.5497" r="4.0497" stroke="#FBF9FA"/>
<path d="M7.42782 15.1657V15.1657C7.42782 14.5282 7.72392 13.9269 8.2292 13.5382L8.5473 13.2935C11.7617 10.8209 16.2375 10.8209 19.4519 13.2935L19.77 13.5382C20.2753 13.9269 20.5714 14.5282 20.5714 15.1657V15.1657" stroke="#FBF9FA"/>
<path d="M11.598 17.2819L11.6745 17.1766L11.598 17.2819L11.7867 17.419L12.1641 17.6932L12.5415 17.9674L12.7302 18.1045C12.7542 18.1219 12.7642 18.1527 12.7551 18.1809L12.683 18.4027L12.5388 18.8464L12.3947 19.29L12.3226 19.5119L12.2865 19.6228C12.1995 19.8906 12.506 20.1132 12.7338 19.9477L12.8282 19.8792L13.0169 19.7421L13.3943 19.4679L13.7717 19.1937L13.9604 19.0566C13.9843 19.0392 14.0167 19.0392 14.0406 19.0566L14.2293 19.1937L14.6068 19.4679L14.9842 19.7421L15.1729 19.8792L15.2672 19.9477L15.4158 19.7432L15.2672 19.9477C15.495 20.1132 15.8015 19.8906 15.7145 19.6228L15.6784 19.5119L15.6064 19.29L15.4622 18.8464L15.3181 18.4027L15.246 18.1809C15.2368 18.1527 15.2468 18.1219 15.2708 18.1045L15.4595 17.9674L15.8369 17.6932L16.2143 17.419L16.403 17.2819L16.4973 17.2134C16.7251 17.0479 16.6081 16.6876 16.3265 16.6876H16.2099H15.9766H15.5101H15.0436H14.8104C14.7808 16.6876 14.7546 16.6685 14.7454 16.6404L14.6734 16.4186L14.5292 15.9749L14.3851 15.5312L14.313 15.3094L14.2769 15.1985C14.1899 14.9307 13.8111 14.9307 13.7241 15.1985L13.688 15.3094L13.616 15.5312L13.4718 15.9749L13.3277 16.4186L13.2556 16.6404C13.2464 16.6685 13.2202 16.6876 13.1906 16.6876H12.9574H12.4909H12.0244H11.7912H11.6745C11.393 16.6876 11.2759 17.0479 11.5037 17.2134L11.6523 17.0089L11.5037 17.2134L11.598 17.2819Z" stroke="#FFD249" stroke-width="0.5"/>
<path d="M17.376 18.5665L17.4525 18.4612L17.376 18.5665L17.5647 18.7036L17.9421 18.9778L18.3195 19.252L18.5082 19.3891C18.5321 19.4065 18.5422 19.4373 18.533 19.4654L18.4609 19.6872L18.3168 20.1309L18.1726 20.5746L18.1006 20.7964L18.0645 20.9073C17.9775 21.1751 18.284 21.3978 18.5118 21.2323L18.6061 21.1637L18.7948 21.0266L19.1722 20.7524L19.5496 20.4782L19.7383 20.3411C19.7623 20.3237 19.7947 20.3237 19.8186 20.3411L20.0073 20.4782L20.3847 20.7524L20.7621 21.0266L20.9508 21.1637L21.0452 21.2323L21.1937 21.0278L21.0452 21.2323C21.273 21.3978 21.5795 21.1751 21.4924 20.9073L21.4564 20.7964L21.3843 20.5746L21.2402 20.1309L21.096 19.6872L21.0239 19.4654C21.0148 19.4373 21.0248 19.4065 21.0487 19.3891L21.2374 19.252L21.6148 18.9778L21.9923 18.7036L22.181 18.5665L22.2753 18.4979C22.5031 18.3324 22.386 17.9721 22.1045 17.9721H21.9878H21.7546H21.2881H20.8216H20.5883C20.5588 17.9721 20.5326 17.9531 20.5234 17.9249L20.4513 17.7031L20.3072 17.2594L20.163 16.8158L20.0909 16.5939L20.0549 16.483C19.9679 16.2152 19.5891 16.2152 19.502 16.483L19.466 16.5939L19.3939 16.8158L19.2498 17.2594L19.1056 17.7031L19.0335 17.9249C19.0244 17.9531 18.9982 17.9721 18.9686 17.9721H18.7354H18.2689H17.8024H17.5691H17.4525C17.1709 17.9721 17.0539 18.3324 17.2816 18.4979L17.4302 18.2934L17.2817 18.4979L17.376 18.5665Z" stroke="#FFD249" stroke-width="0.5"/>
<path d="M23.155 19.85L23.2314 19.7447L23.155 19.85L23.3437 19.9871L23.7211 20.2613L24.0985 20.5355L24.2872 20.6726C24.3111 20.69 24.3211 20.7208 24.312 20.749L24.2399 20.9708L24.0957 21.4145L23.9516 21.8581L23.8795 22.08L23.8435 22.1909C23.7565 22.4586 24.0629 22.6813 24.2907 22.5158L24.3851 22.4473L24.5738 22.3102L24.9512 22.036L25.3286 21.7618L25.5173 21.6247C25.5412 21.6073 25.5736 21.6073 25.5976 21.6247L25.7863 21.7618L26.1637 22.036L26.5411 22.3102L26.7298 22.4473L26.8241 22.5158L26.9727 22.3113L26.8241 22.5158C27.0519 22.6813 27.3584 22.4586 27.2714 22.1909L27.2354 22.08L27.1633 21.8581L27.0191 21.4145L26.875 20.9708L26.8029 20.749C26.7938 20.7208 26.8038 20.69 26.8277 20.6726L27.0164 20.5355L27.3938 20.2613L27.7712 19.9871L27.9599 19.85L28.0543 19.7815C28.2821 19.616 28.165 19.2557 27.8834 19.2557H27.7668H27.5335H27.067H26.6005H26.3673C26.3377 19.2557 26.3115 19.2366 26.3024 19.2085L26.2303 18.9867L26.0861 18.543L25.942 18.0993L25.8699 17.8775L25.8339 17.7666C25.7469 17.4988 25.368 17.4988 25.281 17.7666L25.245 17.8775L25.1729 18.0993L25.0287 18.543L24.8846 18.9867L24.8125 19.2085C24.8034 19.2366 24.7771 19.2557 24.7476 19.2557H24.5143H24.0478H23.5813H23.3481H23.2314C22.9499 19.2557 22.8328 19.616 23.0606 19.7815L23.2092 19.577L23.0606 19.7815L23.155 19.85Z" stroke="#FFD249" stroke-width="0.5"/>
<path d="M5.81908 18.5665L5.89558 18.4612L5.81908 18.5665L6.00779 18.7036L6.38519 18.9778L6.76259 19.252L6.9513 19.3891C6.97523 19.4065 6.98524 19.4373 6.9761 19.4654L6.90402 19.6872L6.75987 20.1309L6.61571 20.5746L6.54363 20.7964L6.50759 20.9073C6.42059 21.1751 6.72708 21.3978 6.95487 21.2323L7.04922 21.1637L7.23792 21.0266L7.61532 20.7524L7.99273 20.4782L8.18143 20.3411C8.20536 20.3237 8.23776 20.3237 8.26169 20.3411L8.4504 20.4782L8.8278 20.7524L9.2052 21.0266L9.39391 21.1637L9.48826 21.2323L9.63683 21.0278L9.48826 21.2323C9.71605 21.3978 10.0225 21.1751 9.93553 20.9073L9.89949 20.7964L9.82741 20.5746L9.68326 20.1309L9.5391 19.6872L9.46702 19.4654C9.45788 19.4373 9.4679 19.4065 9.49183 19.3891L9.68053 19.252L10.0579 18.9778L10.4353 18.7036L10.624 18.5665L10.7184 18.4979C10.9462 18.3324 10.8291 17.9721 10.5475 17.9721H10.4309H10.1977H9.73118H9.26468H9.03143C9.00185 17.9721 8.97564 17.9531 8.9665 17.9249L8.89442 17.7031L8.75026 17.2594L8.60611 16.8158L8.53403 16.5939L8.49799 16.483C8.41098 16.2152 8.03214 16.2152 7.94513 16.483L7.90909 16.5939L7.83702 16.8158L7.69286 17.2594L7.54871 17.7031L7.47663 17.9249C7.46749 17.9531 7.44127 17.9721 7.41169 17.9721H7.17844H6.71195H6.24545H6.0122H5.89558C5.61401 17.9721 5.49694 18.3324 5.72473 18.4979L5.8733 18.2934L5.72473 18.4979L5.81908 18.5665Z" stroke="#FFD249" stroke-width="0.5"/>
<path d="M0.0401327 19.85L0.116624 19.7447L0.0401328 19.85L0.228835 19.9871L0.606239 20.2613L0.983643 20.5355L1.17234 20.6726C1.19628 20.69 1.20629 20.7208 1.19715 20.749L1.12507 20.9708L0.980915 21.4145L0.836759 21.8581L0.764682 22.08L0.728643 22.1909C0.641635 22.4586 0.948124 22.6813 1.17591 22.5158L1.27027 22.4473L1.45897 22.3102L1.83637 22.036L2.21378 21.7618L2.40248 21.6247C2.42641 21.6073 2.45881 21.6073 2.48274 21.6247L2.67144 21.7618L3.04885 22.036L3.42625 22.3102L3.61495 22.4473L3.70931 22.5158L3.85787 22.3113L3.70931 22.5158C3.9371 22.6813 4.24358 22.4586 4.15658 22.1909L4.12054 22.08L4.04846 21.8581L3.90431 21.4145L3.76015 20.9708L3.68807 20.749C3.67893 20.7208 3.68894 20.69 3.71288 20.6726L3.90158 20.5355L4.27898 20.2613L4.65639 19.9871L4.84509 19.85L4.93944 19.7815C5.16723 19.616 5.05015 19.2557 4.7686 19.2557H4.65197H4.41872H3.95223H3.48573H3.25248C3.2229 19.2557 3.19669 19.2366 3.18754 19.2085L3.11547 18.9867L2.97131 18.543L2.82716 18.0993L2.75508 17.8775L2.71904 17.7666C2.63203 17.4988 2.25319 17.4988 2.16618 17.7666L2.13014 17.8775L2.05806 18.0993L1.91391 18.543L1.76975 18.9867L1.69768 19.2085C1.68853 19.2366 1.66232 19.2557 1.63274 19.2557H1.39949H0.932994H0.466497H0.233249H0.116624C-0.164941 19.2557 -0.282008 19.616 -0.0542186 19.7815L0.094351 19.577L-0.0542183 19.7815L0.0401327 19.85Z" stroke="#FFD249" stroke-width="0.5"/>
</g>
<defs>
<filter id="filter0_d_104_2465" x="-2.44961" y="-1.01105" width="32.8994" height="26.8707" filterUnits="userSpaceOnUse" color-interpolation-filters="sRGB">
<feFlood flood-opacity="0" result="BackgroundImageFix"/>
<feColorMatrix in="SourceAlpha" type="matrix" values="0 0 0 0 0 0 0 0 0 0 0 0 0 0 0 0 0 0 127 0" result="hardAlpha"/>
<feOffset dy="1"/>
<feGaussianBlur stdDeviation="1"/>
<feComposite in2="hardAlpha" operator="out"/>
<feColorMatrix type="matrix" values="0 0 0 0 0 0 0 0 0 0 0 0 0 0 0 0 0 0 0.25 0"/>
<feBlend mode="normal" in2="BackgroundImageFix" result="effect1_dropShadow_104_2465"/>
<feBlend mode="normal" in="SourceGraphic" in2="effect1_dropShadow_104_2465" result="shape"/>
</filter>
</defs>
</svg>
