<svg width="40" height="40" viewBox="0 0 40 40" fill="none" xmlns="http://www.w3.org/2000/svg">
<path d="M10.5 15C10.5 12.5147 12.5147 10.5 15 10.5H20H25C27.4853 10.5 29.5 12.5147 29.5 15V20V22.5V25C29.5 27.4853 27.4853 29.5 25 29.5H20H15C12.5147 29.5 10.5 27.4853 10.5 25V20V15ZM15.5 20C15.5 17.5147 17.5147 15.5 20 15.5C22.4853 15.5 24.5 17.5147 24.5 20C24.5 22.4853 22.4853 24.5 20 24.5C17.5147 24.5 15.5 22.4853 15.5 20ZM20 14.5C16.9624 14.5 14.5 16.9624 14.5 20C14.5 23.0376 16.9624 25.5 20 25.5C23.0376 25.5 25.5 23.0376 25.5 20C25.5 16.9624 23.0376 14.5 20 14.5Z" stroke="#618AA9" stroke-opacity="0.68"/>
<path d="M27.1433 13.5711C27.1433 14.3601 26.5037 14.9997 25.7147 14.9997C24.9257 14.9997 24.2861 14.3601 24.2861 13.5711C24.2861 12.7822 24.9257 12.1426 25.7147 12.1426C26.5037 12.1426 27.1433 12.7822 27.1433 13.5711Z" fill="#618AA9" fill-opacity="0.68"/>
</svg>
