<svg width="16" height="14" viewBox="0 0 16 14" fill="none" xmlns="http://www.w3.org/2000/svg">
<g filter="url(#filter0_d_104_2517)">
<circle cx="7.99962" cy="2.54873" r="2.04873" stroke="#FBF9FA"/>
<path d="M3.92166 9.17543V9.17543C3.92166 8.74477 4.11295 8.33636 4.44379 8.06066L4.54454 7.97669C6.546 6.30881 9.45325 6.30881 11.4547 7.97669L11.5555 8.06066C11.8863 8.33636 12.0776 8.74477 12.0776 9.17543V9.17543" stroke="#FBF9FA"/>
<path d="M8.21523 11.3603L8.06542 11.5665L7.99958 11.5186L7.93373 11.5665L7.71807 11.7232L7.50241 11.8799L7.39458 11.9582L7.34066 11.9974C7.12395 12.1548 6.83235 11.943 6.91513 11.6882M8.21523 11.3603L6.91513 11.6882M8.21523 11.3603L8.06542 11.5665L8.28108 11.7232L8.49674 11.8799L8.60457 11.9582L8.65849 11.9974L8.8083 11.7912L8.65849 11.9974C8.87521 12.1548 9.16679 11.943 9.08402 11.6882L9.08402 11.6882M8.21523 11.3603L9.08402 11.6882M6.91513 11.6882L6.93573 11.6248L6.97691 11.4981L7.05929 11.2445L7.14166 10.991L7.16681 10.9136L7.10097 10.8658L6.88531 10.7091L6.66965 10.5524L6.56182 10.4741L6.5079 10.4349C6.29118 10.2774 6.40256 9.93464 6.67044 9.93464H6.73708H6.87037H7.13694H7.40351H7.4849L7.51005 9.85723L7.59243 9.60371L7.6748 9.35019L7.71599 9.22343L7.73658 9.16005L7.97812 9.23853L6.91513 11.6882ZM9.08402 11.6882L9.06342 11.6248L9.02224 11.4981L8.93986 11.2445L8.85749 10.991L8.83234 10.9136L8.89819 10.8658L9.11384 10.7091L9.3295 10.5524L9.43733 10.4741L9.49125 10.4349C9.70796 10.2774 9.59659 9.93464 9.32871 9.93464H9.26207H9.12878H8.86221H8.59564H8.51425L8.4891 9.85723L8.40672 9.60371L8.32435 9.35019L8.28316 9.22343L8.26257 9.16005C8.17979 8.90528 7.81936 8.90528 7.73658 9.16005L9.08402 11.6882Z" stroke="#FFD249" stroke-width="0.5"/>
<path d="M11.5176 12.0941L11.3678 12.3002L11.302 12.2524L11.2361 12.3002L11.0205 12.4569L10.8048 12.6136L10.697 12.692L10.6431 12.7311C10.4263 12.8886 10.1347 12.6767 10.2175 12.422M11.5176 12.0941L10.2175 12.422M11.5176 12.0941L11.3678 12.3002L11.5835 12.4569L11.7991 12.6136L11.907 12.692L11.9609 12.7311L12.1107 12.5249L11.9609 12.7311C12.1776 12.8886 12.4692 12.6767 12.3864 12.422L12.3864 12.422M11.5176 12.0941L12.3864 12.422M10.2175 12.422L10.2381 12.3586L10.2793 12.2318L10.3617 11.9783L10.4441 11.7248L10.4692 11.6474L10.4034 11.5995L10.1877 11.4428L9.97204 11.2862L9.86421 11.2078L9.8103 11.1686C9.59358 11.0112 9.70496 10.6684 9.97284 10.6684H10.0395H10.1728H10.4393H10.7059H10.7873L10.8124 10.591L10.8948 10.3375L10.9772 10.0839L11.0184 9.95718L11.039 9.8938L11.2805 9.97228L10.2175 12.422ZM12.3864 12.422L12.3658 12.3586L12.3246 12.2318L12.2423 11.9783L12.1599 11.7248L12.1347 11.6474L12.2006 11.5995L12.4162 11.4428L12.6319 11.2862L12.7397 11.2078L12.7936 11.1686C13.0104 11.0112 12.899 10.6684 12.6311 10.6684H12.5645H12.4312H12.1646H11.898H11.8166L11.7915 10.591L11.7091 10.3375L11.6267 10.0839L11.5856 9.95718L11.565 9.8938C11.4822 9.63903 11.1218 9.63903 11.039 9.8938L12.3864 12.422Z" stroke="#FFD249" stroke-width="0.5"/>
<path d="M14.82 12.8278L14.6702 13.034L14.6044 12.9862L14.5385 13.034L14.3229 13.1907L14.1072 13.3474L13.9994 13.4257L13.9455 13.4649C13.7287 13.6223 13.4371 13.4105 13.5199 13.1557M14.82 12.8278L13.5199 13.1557M14.82 12.8278L14.6702 13.034L14.8859 13.1907L15.1015 13.3474L15.2094 13.4257L15.2633 13.4649L15.4131 13.2587L15.2633 13.4649C15.48 13.6223 15.7716 13.4105 15.6888 13.1557L15.6888 13.1557M14.82 12.8278L15.6888 13.1557M13.5199 13.1557L13.5405 13.0923L13.5817 12.9656L13.6641 12.7121L13.7465 12.4585L13.7716 12.3811L13.7058 12.3333L13.4901 12.1766L13.2744 12.0199L13.1666 11.9416L13.1127 11.9024C12.896 11.7449 13.0074 11.4022 13.2752 11.4022H13.3419H13.4752H13.7417H14.0083H14.0897L14.1148 11.3247L14.1972 11.0712L14.2796 10.8177L14.3208 10.6909L14.3414 10.6276L14.5829 10.706L13.5199 13.1557ZM15.6888 13.1557L15.6682 13.0923L15.627 12.9656L15.5447 12.7121L15.4623 12.4585L15.4371 12.3811L15.503 12.3333L15.7186 12.1766L15.9343 12.0199L16.0421 11.9416L16.096 11.9024C16.3128 11.7449 16.2014 11.4022 15.9335 11.4022H15.8669H15.7336H15.467H15.2004H15.119L15.0939 11.3247L15.0115 11.0712L14.9291 10.8177L14.888 10.6909L14.8674 10.6276C14.7846 10.3728 14.4242 10.3728 14.3414 10.6276L15.6888 13.1557Z" stroke="#FFD249" stroke-width="0.5"/>
<path d="M4.91383 12.0941L4.76402 12.3002L4.69817 12.2524L4.63233 12.3002L4.41667 12.4569L4.20101 12.6136L4.09318 12.692L4.03926 12.7311C3.82255 12.8886 3.53095 12.6767 3.61373 12.422M4.91383 12.0941L3.61373 12.422M4.91383 12.0941L4.76402 12.3002L4.97968 12.4569L5.19534 12.6136L5.30317 12.692L5.35709 12.7311L5.5069 12.5249L5.35709 12.7311C5.57381 12.8886 5.86539 12.6767 5.78262 12.422L5.78262 12.422M4.91383 12.0941L5.78262 12.422M3.61373 12.422L3.63433 12.3586L3.67551 12.2318L3.75789 11.9783L3.84026 11.7248L3.86541 11.6474L3.79956 11.5995L3.58391 11.4428L3.36825 11.2862L3.26042 11.2078L3.2065 11.1686C2.98978 11.0112 3.10116 10.6684 3.36904 10.6684H3.43568H3.56897H3.83554H4.10211H4.1835L4.20865 10.591L4.29103 10.3375L4.3734 10.0839L4.41459 9.95718L4.43518 9.8938L4.67672 9.97228L3.61373 12.422ZM5.78262 12.422L5.76202 12.3586L5.72084 12.2318L5.63846 11.9783L5.55609 11.7248L5.53094 11.6474L5.59678 11.5995L5.81244 11.4428L6.0281 11.2862L6.13593 11.2078L6.18985 11.1686C6.40656 11.0112 6.29519 10.6684 6.02731 10.6684H5.96067H5.82738H5.56081H5.29424H5.21285L5.1877 10.591L5.10532 10.3375L5.02295 10.0839L4.98176 9.95718L4.96117 9.8938C4.87839 9.63903 4.51796 9.63903 4.43518 9.8938L5.78262 12.422Z" stroke="#FFD249" stroke-width="0.5"/>
<path d="M1.61144 12.8278L1.46163 13.034L1.39578 12.9862L1.32993 13.034L1.11427 13.1907L0.89861 13.3474L0.79078 13.4257L0.736865 13.4649C0.520151 13.6223 0.228554 13.4105 0.311335 13.1557M1.61144 12.8278L0.311335 13.1557M1.61144 12.8278L1.46163 13.034L1.67729 13.1907L1.89295 13.3474L2.00078 13.4257L2.05469 13.4649L2.2045 13.2587L2.05469 13.4649C2.27141 13.6223 2.563 13.4105 2.48022 13.1557L2.48022 13.1557M1.61144 12.8278L2.48022 13.1557M0.311335 13.1557L0.331929 13.0923L0.373116 12.9656L0.455491 12.7121L0.537865 12.4585L0.563017 12.3811L0.497168 12.3333L0.281509 12.1766L0.0658491 12.0199L-0.0419809 11.9416L-0.0958958 11.9024C-0.312613 11.7449 -0.201236 11.4022 0.0666425 11.4022H0.133285H0.26657H0.53314H0.79971H0.881104L0.906256 11.3247L0.98863 11.0712L1.071 10.8177L1.11219 10.6909L1.13279 10.6276L1.37433 10.706L0.311335 13.1557ZM2.48022 13.1557L2.45963 13.0923L2.41844 12.9656L2.33607 12.7121L2.25369 12.4585L2.22854 12.3811L2.29439 12.3333L2.51005 12.1766L2.72571 12.0199L2.83354 11.9416L2.88745 11.9024C3.10417 11.7449 2.99279 11.4022 2.72491 11.4022H2.65827H2.52499H2.25842H1.99185H1.91045L1.8853 11.3247L1.80293 11.0712L1.72055 10.8177L1.67936 10.6909L1.65877 10.6276C1.57599 10.3728 1.21556 10.3728 1.13279 10.6276L2.48022 13.1557Z" stroke="#FFD249" stroke-width="0.5"/>
</g>
<defs>
<filter id="filter0_d_104_2517" x="-2.50492" y="-1.01949" width="21.0101" height="17.8531" filterUnits="userSpaceOnUse" color-interpolation-filters="sRGB">
<feFlood flood-opacity="0" result="BackgroundImageFix"/>
<feColorMatrix in="SourceAlpha" type="matrix" values="0 0 0 0 0 0 0 0 0 0 0 0 0 0 0 0 0 0 127 0" result="hardAlpha"/>
<feOffset dy="1"/>
<feGaussianBlur stdDeviation="1"/>
<feComposite in2="hardAlpha" operator="out"/>
<feColorMatrix type="matrix" values="0 0 0 0 0 0 0 0 0 0 0 0 0 0 0 0 0 0 0.25 0"/>
<feBlend mode="normal" in2="BackgroundImageFix" result="effect1_dropShadow_104_2517"/>
<feBlend mode="normal" in="SourceGraphic" in2="effect1_dropShadow_104_2517" result="shape"/>
</filter>
</defs>
</svg>
